<svg width="14" height="15" viewBox="0 0 14 15" fill="none" xmlns="http://www.w3.org/2000/svg">
<path d="M4.84171 7.40097L8.34171 3.90097C8.45837 3.78431 8.57504 3.72597 8.75004 3.72597C8.92504 3.72597 9.04171 3.78431 9.15837 3.90097C9.39171 4.13431 9.39171 4.48431 9.15837 4.71764L6.06671 7.80931L9.15837 10.901C9.39171 11.1343 9.39171 11.4843 9.15837 11.7176C8.92504 11.951 8.57504 11.951 8.34171 11.7176L4.84171 8.21764C4.60837 7.98431 4.60837 7.63431 4.84171 7.40097Z" fill="#6B7B83"/>
<mask id="mask0_0_541" style="mask-type:luminance" maskUnits="userSpaceOnUse" x="4" y="3" width="6" height="9">
<path d="M4.84171 7.40097L8.34171 3.90097C8.45837 3.78431 8.57504 3.72597 8.75004 3.72597C8.92504 3.72597 9.04171 3.78431 9.15837 3.90097C9.39171 4.13431 9.39171 4.48431 9.15837 4.71764L6.06671 7.80931L9.15837 10.901C9.39171 11.1343 9.39171 11.4843 9.15837 11.7176C8.92504 11.951 8.57504 11.951 8.34171 11.7176L4.84171 8.21764C4.60837 7.98431 4.60837 7.63431 4.84171 7.40097Z" fill="white"/>
</mask>
<g mask="url(#mask0_0_541)">
<rect x="14" y="14.8093" width="14" height="14" transform="rotate(-180 14 14.8093)" fill="#6B7B83"/>
</g>
</svg>
