<svg width="34" height="34" viewBox="0 0 34 34" fill="none" xmlns="http://www.w3.org/2000/svg">
<rect width="34" height="34" rx="6" fill="white"/>
<g clip-path="url(#clip0_6_456)">
<path fill-rule="evenodd" clip-rule="evenodd" d="M24.3924 9.6077C24.8217 10.037 24.8217 10.7347 24.3924 11.164L11.164 24.3923C10.7347 24.8216 10.0371 24.8216 9.60775 24.3923C9.17844 23.963 9.17844 23.2653 9.60775 22.836L22.8361 9.6077C23.2654 9.17838 23.963 9.17838 24.3924 9.6077Z" fill="#6B7B83"/>
<path fill-rule="evenodd" clip-rule="evenodd" d="M9.60775 9.6077C10.0371 9.17838 10.7347 9.17838 11.164 9.6077L24.3856 22.8293C24.815 23.2586 24.815 23.9563 24.3856 24.3856C23.9563 24.8149 23.2587 24.8149 22.8294 24.3856L9.60775 11.164C9.17844 10.7347 9.17844 10.037 9.60775 9.6077Z" fill="#6B7B83"/>
</g>
<defs>
<clipPath id="clip0_6_456">
<rect width="15.4286" height="15.4286" fill="white" transform="translate(9.28577 9.28571)"/>
</clipPath>
</defs>
</svg>
