<svg width="18" height="19" viewBox="0 0 18 19" fill="none" xmlns="http://www.w3.org/2000/svg">
<path fill-rule="evenodd" clip-rule="evenodd" d="M15.75 10.9629C16.1642 10.9629 16.5 11.2987 16.5 11.7129L16.5 14.7129C16.5 15.3096 16.2629 15.8819 15.841 16.3039C15.419 16.7258 14.8467 16.9629 14.25 16.9629L3.75 16.9629C3.15326 16.9629 2.58097 16.7258 2.15901 16.3039C1.73705 15.8819 1.5 15.3096 1.5 14.7129L1.5 11.7129C1.5 11.2987 1.83579 10.9629 2.25 10.9629C2.66421 10.9629 3 11.2987 3 11.7129L3 14.7129C3 14.9118 3.07902 15.1026 3.21967 15.2432C3.36032 15.3839 3.55109 15.4629 3.75 15.4629L14.25 15.4629C14.4489 15.4629 14.6397 15.3839 14.7803 15.2432C14.921 15.1026 15 14.9118 15 14.7129L15 11.7129C15 11.2987 15.3358 10.9629 15.75 10.9629Z" fill="#05A8FF"/>
<path fill-rule="evenodd" clip-rule="evenodd" d="M13.2803 7.43256C13.5732 7.72545 13.5732 8.20033 13.2803 8.49322L9.53033 12.2432C9.23744 12.5361 8.76256 12.5361 8.46967 12.2432L4.71967 8.49322C4.42678 8.20033 4.42678 7.72545 4.71967 7.43256C5.01256 7.13967 5.48744 7.13967 5.78033 7.43256L9 10.6522L12.2197 7.43256C12.5126 7.13967 12.9874 7.13967 13.2803 7.43256Z" fill="#05A8FF"/>
<path fill-rule="evenodd" clip-rule="evenodd" d="M9 1.96289C9.41421 1.96289 9.75 2.29868 9.75 2.71289L9.75 11.7129C9.75 12.1271 9.41421 12.4629 9 12.4629C8.58579 12.4629 8.25 12.1271 8.25 11.7129L8.25 2.71289C8.25 2.29868 8.58579 1.96289 9 1.96289Z" fill="#05A8FF"/>
</svg>
