<svg width="14" height="15" viewBox="0 0 14 15" fill="none" xmlns="http://www.w3.org/2000/svg">
<path d="M9.15832 7.87124L5.65832 11.3712C5.54166 11.4879 5.42499 11.5462 5.24999 11.5462C5.07499 11.5462 4.95832 11.4879 4.84166 11.3712C4.60832 11.1379 4.60832 10.7879 4.84166 10.5546L7.93332 7.46291L4.84166 4.37124C4.60832 4.13791 4.60832 3.78791 4.84166 3.55458C5.07499 3.32124 5.42499 3.32124 5.65832 3.55458L9.15832 7.05458C9.39166 7.28791 9.39166 7.63791 9.15832 7.87124Z" fill="white"/>
<mask id="mask0_0_534" style="mask-type:luminance" maskUnits="userSpaceOnUse" x="4" y="3" width="6" height="9">
<path d="M9.15832 7.87124L5.65832 11.3712C5.54166 11.4879 5.42499 11.5462 5.24999 11.5462C5.07499 11.5462 4.95832 11.4879 4.84166 11.3712C4.60832 11.1379 4.60832 10.7879 4.84166 10.5546L7.93332 7.46291L4.84166 4.37124C4.60832 4.13791 4.60832 3.78791 4.84166 3.55458C5.07499 3.32124 5.42499 3.32124 5.65832 3.55458L9.15832 7.05458C9.39166 7.28791 9.39166 7.63791 9.15832 7.87124Z" fill="white"/>
</mask>
<g mask="url(#mask0_0_534)">
<rect y="0.462891" width="14" height="14" fill="white"/>
</g>
</svg>
