<svg width="38" height="38" viewBox="0 0 38 38" fill="none" xmlns="http://www.w3.org/2000/svg">
<rect width="38" height="38" rx="6" fill="#05A8FF"/>
<path d="M28.6667 14V28C28.6667 28.6188 28.4208 29.2123 27.9832 29.6499C27.5457 30.0875 26.9522 30.3333 26.3333 30.3333H12.3333C11.7145 30.3333 11.121 30.0875 10.6834 29.6499C10.2458 29.2123 10 28.6188 10 28V9.33333C10 8.71449 10.2458 8.121 10.6834 7.68342C11.121 7.24583 11.7145 7 12.3333 7H21.6667L28.6667 14ZM28.6667 14H21.6667V7.68342" stroke="white" stroke-width="2" stroke-linecap="round" stroke-linejoin="round"/>
<path d="M24.0003 19.833H14.667" stroke="white" stroke-width="2" stroke-linecap="round" stroke-linejoin="round"/>
<path d="M24.0003 24.5H14.667" stroke="white" stroke-width="2" stroke-linecap="round" stroke-linejoin="round"/>
<path d="M17.0003 15.1665H15.8337H14.667" stroke="white" stroke-width="2" stroke-linecap="round" stroke-linejoin="round"/>
</svg>
