<svg width="14" height="15" viewBox="0 0 14 15" fill="none" xmlns="http://www.w3.org/2000/svg">
<g clip-path="url(#clip0_6_1057)">
<path fill-rule="evenodd" clip-rule="evenodd" d="M12.7496 1.75043C13.0835 2.08435 13.0835 2.62696 12.7496 2.96087L2.46087 13.2496C2.12696 13.5835 1.58435 13.5835 1.25043 13.2496C0.916522 12.9157 0.916522 12.373 1.25043 12.0391L11.5391 1.75043C11.873 1.41652 12.4157 1.41652 12.7496 1.75043Z" fill="#FF0000"/>
<path fill-rule="evenodd" clip-rule="evenodd" d="M1.25043 1.75043C1.58435 1.41652 2.12696 1.41652 2.46087 1.75043L12.7443 12.0339C13.0783 12.3678 13.0783 12.9104 12.7443 13.2443C12.4104 13.5783 11.8678 13.5783 11.5339 13.2443L1.25043 2.96087C0.916522 2.62696 0.916522 2.08435 1.25043 1.75043Z" fill="#FF0000"/>
</g>
<defs>
<clipPath id="clip0_6_1057">
<rect width="12" height="12" fill="white" transform="translate(1 1.5)"/>
</clipPath>
</defs>
</svg>
